<?xml version="1.0" encoding="utf-8"?>
<!-- Generator: Adobe Illustrator 18.0.0, SVG Export Plug-In . SVG Version: 6.00 Build 0)  -->
<!DOCTYPE svg PUBLIC "-//W3C//DTD SVG 1.1//EN" "http://www.w3.org/Graphics/SVG/1.1/DTD/svg11.dtd">
<svg version="1.1" id="Capa_1" xmlns="http://www.w3.org/2000/svg" xmlns:xlink="http://www.w3.org/1999/xlink" x="0px" y="0px"
	 viewBox="0 0 114.2 114.9" enable-background="new 0 0 114.2 114.9" xml:space="preserve">
<path fill="#EDC02F" d="M8.5,57.1L7,109.3l52.2,1.5c28.8,0.8,52.9-21.9,53.7-50.8C113.7,31.2,91,7.2,62.2,6.3
	C33.3,5.5,9.3,28.3,8.5,57.1z"/>
<path fill="#85CAD3" stroke="#21252C" stroke-width="2" stroke-miterlimit="10" d="M86.2,46.6l-3.8-3.8c-1.8-1.8-5-1.8-6.8,0
	L53.8,64.4L44.4,55c-1.8-1.8-5-1.8-6.8,0l-3.8,3.8c-1.8,1.8-1.8,5,0,6.8l16.6,16.8c1.8,1.8,5,1.8,6.8,0l3.8-3.8
	c0.2-0.2,0.3-0.4,0.5-0.6l24.7-24.6C88,51.5,88,48.4,86.2,46.6z"/>
</svg>
