<?xml version="1.0" encoding="utf-8"?>
<!-- Generator: Adobe Illustrator 18.0.0, SVG Export Plug-In . SVG Version: 6.00 Build 0)  -->
<!DOCTYPE svg PUBLIC "-//W3C//DTD SVG 1.1//EN" "http://www.w3.org/Graphics/SVG/1.1/DTD/svg11.dtd">
<svg version="1.1" id="Capa_1" xmlns="http://www.w3.org/2000/svg" xmlns:xlink="http://www.w3.org/1999/xlink" x="0px" y="0px"
	 viewBox="0 0 114.2 114.9" enable-background="new 0 0 114.2 114.9" xml:space="preserve">
<path fill="#85CAD3" d="M8.2,57.1l-1.5,52.2l52.2,1.5c28.8,0.8,52.9-21.9,53.7-50.8c0.8-28.8-21.9-52.9-50.8-53.7
	C33,5.5,9,28.2,8.2,57.1z"/>
<g>
	<path fill="#EDC02F" stroke="#21252C" stroke-width="2" stroke-miterlimit="10" d="M57.6,83.6c0.3,0.3,0.7,0.5,1.1,0.5
		c0.4,0,0.8-0.2,1.1-0.5l19.6-19.9c8.2-8.3,2.4-22.6-9.3-22.6c-7,0-10.2,5.1-11.4,6.1c-1.3-1-4.4-6.1-11.4-6.1
		c-11.6,0-17.5,14.3-9.3,22.6L57.6,83.6z"/>
</g>
</svg>
